Coordinates
version=1
nRows=13
nColumns=38
inDegrees=no

Units are S.I. units (second, meters, Newtons, ...)
If the header above contains a line with 'inDegrees', this indicates whether rotational values are in degrees (yes) or radians (no).

endheader
time	pelvis_tilt	pelvis_list	pelvis_rotation	pelvis_tx	pelvis_ty	pelvis_tz	hip_flexion_r	hip_adduction_r	hip_rotation_r	knee_angle_r	ankle_angle_r	subtalar_angle_r	mtp_angle_r	hip_flexion_l	hip_adduction_l	hip_rotation_l	knee_angle_l	ankle_angle_l	subtalar_angle_l	mtp_angle_l	lumbar_extension	lumbar_bending	lumbar_rotation	arm_flex_r	arm_add_r	arm_rot_r	elbow_flex_r	pro_sup_r	wrist_flex_r	wrist_dev_r	arm_flex_l	arm_add_l	arm_rot_l	elbow_flex_l	pro_sup_l	wrist_flex_l	wrist_dev_l
0.55	3.03247	1.3365	-1.41825	0.628743	0.148834	0.952278	-0.0163293	-0.117482	-0.10132	1.27708	-0.401502	0	0	-0.134719	-0.0272098	-0.445009	0.370826	-0.174977	0	0	-0.360521	-0.0183112	-0.224289	0.196727	-0.507322	1.35507	0.670058	0.200194	0	0	-0.319404	-0.459856	-0.018796	0.949574	1.553	0	0
0.56	3.01697	1.33822	-1.39963	0.627341	0.158762	0.953164	0.0174249	-0.116878	-0.103123	1.2972	-0.387396	0	0	-0.148749	-0.0280242	-0.440991	0.361274	-0.171674	0	0	-0.35722	-0.0119785	-0.2306	0.203947	-0.509288	1.36072	0.669155	0.202068	0	0	-0.305633	-0.466894	-0.0133857	0.947432	1.55745	0	0
0.57	2.99813	1.33933	-1.37645	0.625994	0.168739	0.953983	0.0491924	-0.114661	-0.105521	1.31145	-0.372836	0	0	-0.162472	-0.0306166	-0.435296	0.35217	-0.168438	0	0	-0.353995	-0.00455718	-0.237014	0.210392	-0.511082	1.36677	0.667784	0.203597	0	0	-0.290734	-0.473832	-0.00735274	0.94466	1.56249	0	0
0.58	2.97684	1.33953	-1.35024	0.624715	0.178572	0.954788	0.0776954	-0.110302	-0.107295	1.31784	-0.35727	0	0	-0.176077	-0.0348094	-0.429025	0.343774	-0.165785	0	0	-0.35184	0.00361936	-0.243114	0.216568	-0.512272	1.37273	0.665341	0.204569	0	0	-0.274421	-0.480466	-0.00151894	0.941689	1.56703	0	0
0.59	2.95739	1.33861	-1.32508	0.62348	0.188321	0.955503	0.102894	-0.106086	-0.110685	1.31818	-0.340539	0	0	-0.190399	-0.039418	-0.422592	0.33595	-0.163183	0	0	-0.350944	0.011666	-0.249397	0.222422	-0.5133	1.37846	0.662837	0.205298	0	0	-0.257629	-0.486765	0.00323094	0.939656	1.57068	0	0
0.6	2.94114	1.33657	-1.30283	0.622281	0.198027	0.956109	0.125336	-0.102913	-0.115667	1.31446	-0.323031	0	0	-0.206105	-0.0437718	-0.416506	0.328288	-0.160025	0	0	-0.351397	0.0192055	-0.255726	0.228072	-0.514443	1.38393	0.660834	0.206	0	0	-0.240963	-0.492748	0.00676012	0.939075	1.5708	0	0
0.61	2.92894	1.33427	-1.28481	0.621139	0.207774	0.956531	0.146307	-0.10143	-0.121607	1.30869	-0.304108	0	0	-0.222692	-0.0473016	-0.411969	0.320533	-0.156373	0	0	-0.352339	0.0256836	-0.261634	0.23315	-0.515913	1.38896	0.659697	0.206737	0	0	-0.224649	-0.498254	0.0091082	0.939978	1.5708	0	0
0.62	2.92058	1.33204	-1.26969	0.619935	0.217443	0.956747	0.165726	-0.102014	-0.128804	1.30166	-0.282195	0	0	-0.239115	-0.0503642	-0.408445	0.313373	-0.152599	0	0	-0.353827	0.0314183	-0.268042	0.237824	-0.517586	1.39331	0.659444	0.20736	0	0	-0.208376	-0.503384	0.00967172	0.942401	1.5708	0	0
0.63	2.91362	1.3302	-1.25575	0.618752	0.227046	0.956787	0.184345	-0.103582	-0.136403	1.28999	-0.260242	0	0	-0.254838	-0.0532558	-0.404809	0.306786	-0.148611	0	0	-0.355354	0.0367067	-0.274225	0.242015	-0.519232	1.39688	0.659568	0.207627	0	0	-0.192134	-0.507741	0.00897814	0.946058	1.5708	0	0
0.64	2.90675	1.32966	-1.24241	0.617743	0.236645	0.95655	0.204502	-0.105167	-0.143172	1.2691	-0.246484	0	0	-0.268753	-0.0559961	-0.400937	0.301115	-0.143951	0	0	-0.355815	0.0411128	-0.27964	0.245421	-0.520558	1.39958	0.659783	0.207624	0	0	-0.176552	-0.51173	0.00725875	0.950985	1.5708	0	0
0.65	2.89996	1.33025	-1.23009	0.616865	0.246208	0.956114	0.223695	-0.106389	-0.149814	1.24435	-0.235078	0	0	-0.281013	-0.0583915	-0.397882	0.296385	-0.138887	0	0	-0.355479	0.0447829	-0.283945	0.248398	-0.52157	1.40171	0.65981	0.207567	0	0	-0.16119	-0.515082	0.00465743	0.956951	1.57068	0	0
0.66	2.89515	1.33119	-1.2199	0.616083	0.255704	0.955585	0.240581	-0.107658	-0.156807	1.21704	-0.221749	0	0	-0.292622	-0.0603451	-0.394922	0.292202	-0.133865	0	0	-0.355199	0.047741	-0.287777	0.251022	-0.522153	1.40325	0.659737	0.207377	0	0	-0.145783	-0.517544	0.00121641	0.963724	1.57025	0	0
0.67	2.89213	1.33122	-1.21104	0.615443	0.265106	0.955075	0.253571	-0.108141	-0.16324	1.18454	-0.206162	0	0	-0.304941	-0.0625711	-0.391301	0.288091	-0.128492	0	0	-0.356425	0.0503866	-0.291591	0.253457	-0.521711	1.40412	0.659062	0.206755	0	0	-0.130729	-0.519668	-0.00368933	0.971689	1.56985	0	0
